<?xml version="1.0" encoding="UTF-8" standalone="no"?>
<!DOCTYPE svg PUBLIC "-//W3C//DTD SVG 1.1//EN"
 "http://www.w3.org/Graphics/SVG/1.1/DTD/svg11.dtd">
<!-- Generated by graphviz version 2.40.1 (20161225.0304)
 -->
<!-- Title: dependencies Pages: 1 -->
<svg width="4553pt" height="352pt"
 viewBox="0.00 0.00 4553.00 352.00" xmlns="http://www.w3.org/2000/svg" xmlns:xlink="http://www.w3.org/1999/xlink">
<g id="graph0" class="graph" transform="scale(1 1) rotate(0) translate(4 348)">
<title>dependencies</title>
<polygon fill="#ffffff" stroke="transparent" points="-4,4 -4,-348 4549,-348 4549,4 -4,4"/>
<text text-anchor="start" x="2251.5091" y="-42.4" font-family="sans-serif" font-weight="bold" font-size="14.00" fill="#000000">Legend</text>
<polygon fill="#ffffb3" stroke="transparent" points="2038.5,-10 2038.5,-30 2058.5,-30 2058.5,-10 2038.5,-10"/>
<text text-anchor="start" x="2062.129" y="-15.4" font-family="sans-serif" font-size="14.00" fill="#000000"> &#160;Declarations</text>
<polygon fill="#8dd3c7" stroke="transparent" points="2151.5,-10 2151.5,-30 2171.5,-30 2171.5,-10 2151.5,-10"/>
<text text-anchor="start" x="2175.2251" y="-15.4" font-family="sans-serif" font-size="14.00" fill="#000000"> &#160;Module</text>
<polygon fill="#80b1d3" stroke="transparent" points="2237.5,-10 2237.5,-30 2257.5,-30 2257.5,-10 2237.5,-10"/>
<text text-anchor="start" x="2261.2812" y="-15.4" font-family="sans-serif" font-size="14.00" fill="#000000"> &#160;Bootstrap</text>
<polygon fill="#fdb462" stroke="transparent" points="2334.5,-10 2334.5,-30 2354.5,-30 2354.5,-10 2334.5,-10"/>
<text text-anchor="start" x="2358.1732" y="-15.4" font-family="sans-serif" font-size="14.00" fill="#000000"> &#160;Providers</text>
<polygon fill="#fb8072" stroke="transparent" points="2430.5,-10 2430.5,-30 2450.5,-30 2450.5,-10 2430.5,-10"/>
<text text-anchor="start" x="2454.2258" y="-15.4" font-family="sans-serif" font-size="14.00" fill="#000000"> &#160;Exports</text>
<g id="clust1" class="cluster">
<title>cluster_AppModule</title>
<polygon fill="none" stroke="#000000" stroke-dasharray="1,5" points="8,-70 8,-268 1311,-268 1311,-70 8,-70"/>
</g>
<g id="clust2" class="cluster">
<title>cluster_AppModule_declarations</title>
<polygon fill="none" stroke="#000000" points="1068,-78 1068,-130 1303,-130 1303,-78 1068,-78"/>
</g>
<g id="clust7" class="cluster">
<title>cluster_AppModule_bootstrap</title>
<polygon fill="none" stroke="#000000" points="737,-208 737,-260 825,-260 825,-208 737,-208"/>
</g>
<g id="clust8" class="cluster">
<title>cluster_AppModule_providers</title>
<polygon fill="none" stroke="#000000" points="16,-78 16,-130 1060,-130 1060,-78 16,-78"/>
</g>
<g id="clust9" class="cluster">
<title>cluster_CategoriaCardComponentModule</title>
<polygon fill="none" stroke="#000000" stroke-dasharray="1,5" points="1319,-70 1319,-268 1541,-268 1541,-70 1319,-70"/>
</g>
<g id="clust10" class="cluster">
<title>cluster_CategoriaCardComponentModule_declarations</title>
<polygon fill="none" stroke="#000000" points="1341,-78 1341,-130 1519,-130 1519,-78 1341,-78"/>
</g>
<g id="clust13" class="cluster">
<title>cluster_CategoriaCardComponentModule_exports</title>
<polygon fill="none" stroke="#000000" points="1339,-208 1339,-260 1521,-260 1521,-208 1339,-208"/>
</g>
<g id="clust16" class="cluster">
<title>cluster_CategoriaDetailClientePageModule</title>
<polygon fill="none" stroke="#000000" stroke-dasharray="1,5" points="1549,-70 1549,-195 1781,-195 1781,-70 1549,-70"/>
</g>
<g id="clust17" class="cluster">
<title>cluster_CategoriaDetailClientePageModule_declarations</title>
<polygon fill="none" stroke="#000000" points="1571,-78 1571,-130 1759,-130 1759,-78 1571,-78"/>
</g>
<g id="clust23" class="cluster">
<title>cluster_CategoriaDetailPageModule</title>
<polygon fill="none" stroke="#000000" stroke-dasharray="1,5" points="1789,-70 1789,-195 1981,-195 1981,-70 1789,-70"/>
</g>
<g id="clust24" class="cluster">
<title>cluster_CategoriaDetailPageModule_declarations</title>
<polygon fill="none" stroke="#000000" points="1811,-78 1811,-130 1959,-130 1959,-78 1811,-78"/>
</g>
<g id="clust30" class="cluster">
<title>cluster_EditCategoryPageModule</title>
<polygon fill="none" stroke="#000000" stroke-dasharray="1,5" points="1989,-70 1989,-195 2167,-195 2167,-70 1989,-70"/>
</g>
<g id="clust31" class="cluster">
<title>cluster_EditCategoryPageModule_declarations</title>
<polygon fill="none" stroke="#000000" points="2011,-78 2011,-130 2145,-130 2145,-78 2011,-78"/>
</g>
<g id="clust37" class="cluster">
<title>cluster_EditItemPageModule</title>
<polygon fill="none" stroke="#000000" stroke-dasharray="1,5" points="2175,-70 2175,-195 2327,-195 2327,-70 2175,-70"/>
</g>
<g id="clust38" class="cluster">
<title>cluster_EditItemPageModule_declarations</title>
<polygon fill="none" stroke="#000000" points="2197,-78 2197,-130 2305,-130 2305,-78 2197,-78"/>
</g>
<g id="clust44" class="cluster">
<title>cluster_GooglePlaceComponentModule</title>
<polygon fill="none" stroke="#000000" stroke-dasharray="1,5" points="2335,-70 2335,-336 2547,-336 2547,-70 2335,-70"/>
</g>
<g id="clust45" class="cluster">
<title>cluster_GooglePlaceComponentModule_declarations</title>
<polygon fill="none" stroke="#000000" points="2364,-143 2364,-195 2518,-195 2518,-143 2364,-143"/>
</g>
<g id="clust46" class="cluster">
<title>cluster_GooglePlaceComponentModule_GoogleplaceDirective_providers</title>
<polygon fill="none" stroke="#000000" points="2385,-78 2385,-130 2497,-130 2497,-78 2385,-78"/>
</g>
<g id="clust48" class="cluster">
<title>cluster_GooglePlaceComponentModule_exports</title>
<polygon fill="none" stroke="#000000" points="2362,-276 2362,-328 2520,-328 2520,-276 2362,-276"/>
</g>
<g id="clust51" class="cluster">
<title>cluster_HomePageModule</title>
<polygon fill="none" stroke="#000000" stroke-dasharray="1,5" points="2555,-70 2555,-195 2691,-195 2691,-70 2555,-70"/>
</g>
<g id="clust52" class="cluster">
<title>cluster_HomePageModule_declarations</title>
<polygon fill="none" stroke="#000000" points="2576,-78 2576,-130 2670,-130 2670,-78 2576,-78"/>
</g>
<g id="clust58" class="cluster">
<title>cluster_ItemDetailPageModule</title>
<polygon fill="none" stroke="#000000" stroke-dasharray="1,5" points="2699,-70 2699,-195 2861,-195 2861,-70 2699,-70"/>
</g>
<g id="clust59" class="cluster">
<title>cluster_ItemDetailPageModule_declarations</title>
<polygon fill="none" stroke="#000000" points="2720,-78 2720,-130 2840,-130 2840,-78 2720,-78"/>
</g>
<g id="clust65" class="cluster">
<title>cluster_LoginPageModule</title>
<polygon fill="none" stroke="#000000" stroke-dasharray="1,5" points="2869,-70 2869,-268 3005,-268 3005,-70 2869,-70"/>
</g>
<g id="clust66" class="cluster">
<title>cluster_LoginPageModule_declarations</title>
<polygon fill="none" stroke="#000000" points="2891,-78 2891,-130 2983,-130 2983,-78 2891,-78"/>
</g>
<g id="clust69" class="cluster">
<title>cluster_LoginPageModule_exports</title>
<polygon fill="none" stroke="#000000" points="2889,-208 2889,-260 2985,-260 2985,-208 2889,-208"/>
</g>
<g id="clust72" class="cluster">
<title>cluster_MainPageModule</title>
<polygon fill="none" stroke="#000000" stroke-dasharray="1,5" points="3013,-70 3013,-195 3145,-195 3145,-70 3013,-70"/>
</g>
<g id="clust73" class="cluster">
<title>cluster_MainPageModule_declarations</title>
<polygon fill="none" stroke="#000000" points="3035,-78 3035,-130 3123,-130 3123,-78 3035,-78"/>
</g>
<g id="clust79" class="cluster">
<title>cluster_MapaPageModule</title>
<polygon fill="none" stroke="#000000" stroke-dasharray="1,5" points="3153,-70 3153,-195 3287,-195 3287,-70 3153,-70"/>
</g>
<g id="clust80" class="cluster">
<title>cluster_MapaPageModule_declarations</title>
<polygon fill="none" stroke="#000000" points="3174,-78 3174,-130 3266,-130 3266,-78 3174,-78"/>
</g>
<g id="clust86" class="cluster">
<title>cluster_NegocioCardComponentModule</title>
<polygon fill="none" stroke="#000000" stroke-dasharray="1,5" points="3295,-70 3295,-268 3511,-268 3511,-70 3295,-70"/>
</g>
<g id="clust87" class="cluster">
<title>cluster_NegocioCardComponentModule_declarations</title>
<polygon fill="none" stroke="#000000" points="3317,-78 3317,-130 3489,-130 3489,-78 3317,-78"/>
</g>
<g id="clust90" class="cluster">
<title>cluster_NegocioCardComponentModule_exports</title>
<polygon fill="none" stroke="#000000" points="3315,-208 3315,-260 3491,-260 3491,-208 3315,-208"/>
</g>
<g id="clust93" class="cluster">
<title>cluster_NegocioMainPageModule</title>
<polygon fill="none" stroke="#000000" stroke-dasharray="1,5" points="3519,-70 3519,-195 3699,-195 3699,-70 3519,-70"/>
</g>
<g id="clust94" class="cluster">
<title>cluster_NegocioMainPageModule_declarations</title>
<polygon fill="none" stroke="#000000" points="3541,-78 3541,-130 3677,-130 3677,-78 3541,-78"/>
</g>
<g id="clust100" class="cluster">
<title>cluster_NewCategoryPageModule</title>
<polygon fill="none" stroke="#000000" stroke-dasharray="1,5" points="3707,-70 3707,-195 3887,-195 3887,-70 3707,-70"/>
</g>
<g id="clust101" class="cluster">
<title>cluster_NewCategoryPageModule_declarations</title>
<polygon fill="none" stroke="#000000" points="3729,-78 3729,-130 3865,-130 3865,-78 3729,-78"/>
</g>
<g id="clust107" class="cluster">
<title>cluster_NewItemPageModule</title>
<polygon fill="none" stroke="#000000" stroke-dasharray="1,5" points="3895,-70 3895,-195 4049,-195 4049,-70 3895,-70"/>
</g>
<g id="clust108" class="cluster">
<title>cluster_NewItemPageModule_declarations</title>
<polygon fill="none" stroke="#000000" points="3916,-78 3916,-130 4028,-130 4028,-78 3916,-78"/>
</g>
<g id="clust114" class="cluster">
<title>cluster_NotificacionesPageModule</title>
<polygon fill="none" stroke="#000000" stroke-dasharray="1,5" points="4057,-70 4057,-195 4241,-195 4241,-70 4057,-70"/>
</g>
<g id="clust115" class="cluster">
<title>cluster_NotificacionesPageModule_declarations</title>
<polygon fill="none" stroke="#000000" points="4079,-78 4079,-130 4219,-130 4219,-78 4079,-78"/>
</g>
<g id="clust121" class="cluster">
<title>cluster_ProfilePageModule</title>
<polygon fill="none" stroke="#000000" stroke-dasharray="1,5" points="4249,-70 4249,-195 4389,-195 4389,-70 4249,-70"/>
</g>
<g id="clust122" class="cluster">
<title>cluster_ProfilePageModule_declarations</title>
<polygon fill="none" stroke="#000000" points="4270,-78 4270,-130 4368,-130 4368,-78 4270,-78"/>
</g>
<g id="clust128" class="cluster">
<title>cluster_SearchPageModule</title>
<polygon fill="none" stroke="#000000" stroke-dasharray="1,5" points="4397,-70 4397,-195 4537,-195 4537,-70 4397,-70"/>
</g>
<g id="clust129" class="cluster">
<title>cluster_SearchPageModule_declarations</title>
<polygon fill="none" stroke="#000000" points="4418,-78 4418,-130 4516,-130 4516,-78 4418,-78"/>
</g>
<!-- MyApp -->
<g id="node1" class="node">
<title>MyApp</title>
<polygon fill="#ffffb3" stroke="#000000" points="1294.5529,-122 1235.4471,-122 1235.4471,-86 1294.5529,-86 1294.5529,-122"/>
<text text-anchor="middle" x="1265" y="-99.8" font-family="Times,serif" font-size="14.00" fill="#000000">MyApp</text>
</g>
<!-- AppModule -->
<g id="node3" class="node">
<title>AppModule</title>
<polygon fill="#8dd3c7" stroke="#000000" points="822.6571,-187 819.6571,-191 798.6571,-191 795.6571,-187 739.3429,-187 739.3429,-151 822.6571,-151 822.6571,-187"/>
<text text-anchor="middle" x="781" y="-164.8" font-family="Times,serif" font-size="14.00" fill="#000000">AppModule</text>
</g>
<!-- MyApp&#45;&gt;AppModule -->
<g id="edge1" class="edge">
<title>MyApp&#45;&gt;AppModule</title>
<path fill="none" stroke="#000000" d="M1265,-122.0109C1265,-144.4852 1265,-180 1265,-180 1265,-180 832.6845,-180 832.6845,-180"/>
<polygon fill="#000000" stroke="#000000" points="832.6845,-176.5001 822.6845,-180 832.6844,-183.5001 832.6845,-176.5001"/>
</g>
<!-- PopoverCategoryPage -->
<g id="node2" class="node">
<title>PopoverCategoryPage</title>
<polygon fill="#ffffb3" stroke="#000000" points="1217.6867,-122 1076.3133,-122 1076.3133,-86 1217.6867,-86 1217.6867,-122"/>
<text text-anchor="middle" x="1147" y="-99.8" font-family="Times,serif" font-size="14.00" fill="#000000">PopoverCategoryPage</text>
</g>
<!-- PopoverCategoryPage&#45;&gt;AppModule -->
<g id="edge2" class="edge">
<title>PopoverCategoryPage&#45;&gt;AppModule</title>
<path fill="none" stroke="#000000" d="M1147,-122.1289C1147,-142.5724 1147,-173 1147,-173 1147,-173 832.9849,-173 832.9849,-173"/>
<polygon fill="#000000" stroke="#000000" points="832.9849,-169.5001 822.9849,-173 832.9848,-176.5001 832.9849,-169.5001"/>
</g>
<!-- IonicApp  -->
<g id="node4" class="node">
<title>IonicApp </title>
<polygon fill="#80b1d3" stroke="#000000" points="817.3734,-252 744.6266,-252 744.6266,-216 817.3734,-216 817.3734,-252"/>
<text text-anchor="middle" x="781" y="-229.8" font-family="Times,serif" font-size="14.00" fill="#000000">IonicApp </text>
</g>
<!-- AppModule&#45;&gt;IonicApp  -->
<g id="edge3" class="edge">
<title>AppModule&#45;&gt;IonicApp </title>
<path fill="none" stroke="#000000" stroke-dasharray="1,5" d="M781,-187.1061C781,-187.1061 781,-205.991 781,-205.991"/>
<polygon fill="#000000" stroke="#000000" points="777.5001,-205.9909 781,-215.991 784.5001,-205.991 777.5001,-205.9909"/>
</g>
<!-- Api -->
<g id="node5" class="node">
<title>Api</title>
<ellipse fill="#fdb462" stroke="#000000" cx="1025" cy="-104" rx="27" ry="18"/>
<text text-anchor="middle" x="1025" y="-99.8" font-family="Times,serif" font-size="14.00" fill="#000000">Api</text>
</g>
<!-- Api&#45;&gt;AppModule -->
<g id="edge4" class="edge">
<title>Api&#45;&gt;AppModule</title>
<path fill="none" stroke="#000000" d="M1025,-122.2667C1025,-140.5552 1025,-166 1025,-166 1025,-166 832.6679,-166 832.6679,-166"/>
<polygon fill="#000000" stroke="#000000" points="832.6679,-162.5001 822.6679,-166 832.6678,-169.5001 832.6679,-162.5001"/>
</g>
<!-- ItemsService -->
<g id="node6" class="node">
<title>ItemsService</title>
<ellipse fill="#fdb462" stroke="#000000" cx="919" cy="-104" rx="61.3896" ry="18"/>
<text text-anchor="middle" x="919" y="-99.8" font-family="Times,serif" font-size="14.00" fill="#000000">ItemsService</text>
</g>
<!-- ItemsService&#45;&gt;AppModule -->
<g id="edge5" class="edge">
<title>ItemsService&#45;&gt;AppModule</title>
<path fill="none" stroke="#000000" d="M919,-122.0091C919,-138.0494 919,-159 919,-159 919,-159 832.779,-159 832.779,-159"/>
<polygon fill="#000000" stroke="#000000" points="832.7791,-155.5001 822.779,-159 832.779,-162.5001 832.7791,-155.5001"/>
</g>
<!-- UserService -->
<g id="node7" class="node">
<title>UserService</title>
<ellipse fill="#fdb462" stroke="#000000" cx="781" cy="-104" rx="58.4415" ry="18"/>
<text text-anchor="middle" x="781" y="-99.8" font-family="Times,serif" font-size="14.00" fill="#000000">UserService</text>
</g>
<!-- UserService&#45;&gt;AppModule -->
<g id="edge6" class="edge">
<title>UserService&#45;&gt;AppModule</title>
<path fill="none" stroke="#000000" d="M781,-122.1061C781,-122.1061 781,-140.991 781,-140.991"/>
<polygon fill="#000000" stroke="#000000" points="777.5001,-140.9909 781,-150.991 784.5001,-140.991 777.5001,-140.9909"/>
</g>
<!-- CategoriasService -->
<g id="node8" class="node">
<title>CategoriasService</title>
<ellipse fill="#fdb462" stroke="#000000" cx="623" cy="-104" rx="81.0744" ry="18"/>
<text text-anchor="middle" x="623" y="-99.8" font-family="Times,serif" font-size="14.00" fill="#000000">CategoriasService</text>
</g>
<!-- CategoriasService&#45;&gt;AppModule -->
<g id="edge7" class="edge">
<title>CategoriasService&#45;&gt;AppModule</title>
<path fill="none" stroke="#000000" d="M623,-122.0091C623,-138.0494 623,-159 623,-159 623,-159 729.0737,-159 729.0737,-159"/>
<polygon fill="#000000" stroke="#000000" points="729.0738,-162.5001 739.0737,-159 729.0737,-155.5001 729.0738,-162.5001"/>
</g>
<!-- LoadingProvider -->
<g id="node9" class="node">
<title>LoadingProvider</title>
<ellipse fill="#fdb462" stroke="#000000" cx="447" cy="-104" rx="76.4478" ry="18"/>
<text text-anchor="middle" x="447" y="-99.8" font-family="Times,serif" font-size="14.00" fill="#000000">LoadingProvider</text>
</g>
<!-- LoadingProvider&#45;&gt;AppModule -->
<g id="edge8" class="edge">
<title>LoadingProvider&#45;&gt;AppModule</title>
<path fill="none" stroke="#000000" d="M447,-122.2667C447,-140.5552 447,-166 447,-166 447,-166 729.0369,-166 729.0369,-166"/>
<polygon fill="#000000" stroke="#000000" points="729.0369,-169.5001 739.0369,-166 729.0368,-162.5001 729.0369,-169.5001"/>
</g>
<!-- GeoProvider -->
<g id="node10" class="node">
<title>GeoProvider</title>
<ellipse fill="#fdb462" stroke="#000000" cx="292" cy="-104" rx="60.2537" ry="18"/>
<text text-anchor="middle" x="292" y="-99.8" font-family="Times,serif" font-size="14.00" fill="#000000">GeoProvider</text>
</g>
<!-- GeoProvider&#45;&gt;AppModule -->
<g id="edge9" class="edge">
<title>GeoProvider&#45;&gt;AppModule</title>
<path fill="none" stroke="#000000" d="M292,-122.1289C292,-142.5724 292,-173 292,-173 292,-173 729.3081,-173 729.3081,-173"/>
<polygon fill="#000000" stroke="#000000" points="729.3082,-176.5001 739.3081,-173 729.3081,-169.5001 729.3082,-176.5001"/>
</g>
<!-- NotificationsProvider -->
<g id="node11" class="node">
<title>NotificationsProvider</title>
<ellipse fill="#fdb462" stroke="#000000" cx="119" cy="-104" rx="94.9187" ry="18"/>
<text text-anchor="middle" x="119" y="-99.8" font-family="Times,serif" font-size="14.00" fill="#000000">NotificationsProvider</text>
</g>
<!-- NotificationsProvider&#45;&gt;AppModule -->
<g id="edge10" class="edge">
<title>NotificationsProvider&#45;&gt;AppModule</title>
<path fill="none" stroke="#000000" d="M119,-122.0109C119,-144.4852 119,-180 119,-180 119,-180 729.3382,-180 729.3382,-180"/>
<polygon fill="#000000" stroke="#000000" points="729.3382,-183.5001 739.3382,-180 729.3381,-176.5001 729.3382,-183.5001"/>
</g>
<!-- CategoriaCardComponent -->
<g id="node12" class="node">
<title>CategoriaCardComponent</title>
<polygon fill="#ffffb3" stroke="#000000" points="1511.4664,-122 1348.5336,-122 1348.5336,-86 1511.4664,-86 1511.4664,-122"/>
<text text-anchor="middle" x="1430" y="-99.8" font-family="Times,serif" font-size="14.00" fill="#000000">CategoriaCardComponent</text>
</g>
<!-- CategoriaCardComponentModule -->
<g id="node13" class="node">
<title>CategoriaCardComponentModule</title>
<polygon fill="#8dd3c7" stroke="#000000" points="1533.0168,-187 1530.0168,-191 1509.0168,-191 1506.0168,-187 1326.9832,-187 1326.9832,-151 1533.0168,-151 1533.0168,-187"/>
<text text-anchor="middle" x="1430" y="-164.8" font-family="Times,serif" font-size="14.00" fill="#000000">CategoriaCardComponentModule</text>
</g>
<!-- CategoriaCardComponent&#45;&gt;CategoriaCardComponentModule -->
<g id="edge11" class="edge">
<title>CategoriaCardComponent&#45;&gt;CategoriaCardComponentModule</title>
<path fill="none" stroke="#000000" d="M1430,-122.1061C1430,-122.1061 1430,-140.991 1430,-140.991"/>
<polygon fill="#000000" stroke="#000000" points="1426.5001,-140.9909 1430,-150.991 1433.5001,-140.991 1426.5001,-140.9909"/>
</g>
<!-- CategoriaCardComponent  -->
<g id="node14" class="node">
<title>CategoriaCardComponent </title>
<polygon fill="#fb8072" stroke="#000000" points="1513.4671,-252 1346.5329,-252 1346.5329,-216 1513.4671,-216 1513.4671,-252"/>
<text text-anchor="middle" x="1430" y="-229.8" font-family="Times,serif" font-size="14.00" fill="#000000">CategoriaCardComponent </text>
</g>
<!-- CategoriaCardComponentModule&#45;&gt;CategoriaCardComponent  -->
<g id="edge12" class="edge">
<title>CategoriaCardComponentModule&#45;&gt;CategoriaCardComponent </title>
<path fill="none" stroke="#000000" stroke-dasharray="5,2" d="M1430,-187.1061C1430,-187.1061 1430,-205.991 1430,-205.991"/>
<polygon fill="#000000" stroke="#000000" points="1426.5001,-205.9909 1430,-215.991 1433.5001,-205.991 1426.5001,-205.9909"/>
</g>
<!-- CategoriaDetailClientePage -->
<g id="node15" class="node">
<title>CategoriaDetailClientePage</title>
<polygon fill="#ffffb3" stroke="#000000" points="1751.2794,-122 1578.7206,-122 1578.7206,-86 1751.2794,-86 1751.2794,-122"/>
<text text-anchor="middle" x="1665" y="-99.8" font-family="Times,serif" font-size="14.00" fill="#000000">CategoriaDetailClientePage</text>
</g>
<!-- CategoriaDetailClientePageModule -->
<g id="node16" class="node">
<title>CategoriaDetailClientePageModule</title>
<polygon fill="#8dd3c7" stroke="#000000" points="1772.8291,-187 1769.8291,-191 1748.8291,-191 1745.8291,-187 1557.1709,-187 1557.1709,-151 1772.8291,-151 1772.8291,-187"/>
<text text-anchor="middle" x="1665" y="-164.8" font-family="Times,serif" font-size="14.00" fill="#000000">CategoriaDetailClientePageModule</text>
</g>
<!-- CategoriaDetailClientePage&#45;&gt;CategoriaDetailClientePageModule -->
<g id="edge13" class="edge">
<title>CategoriaDetailClientePage&#45;&gt;CategoriaDetailClientePageModule</title>
<path fill="none" stroke="#000000" d="M1665,-122.1061C1665,-122.1061 1665,-140.991 1665,-140.991"/>
<polygon fill="#000000" stroke="#000000" points="1661.5001,-140.9909 1665,-150.991 1668.5001,-140.991 1661.5001,-140.9909"/>
</g>
<!-- CategoriaDetailPage -->
<g id="node17" class="node">
<title>CategoriaDetailPage</title>
<polygon fill="#ffffb3" stroke="#000000" points="1950.8417,-122 1819.1583,-122 1819.1583,-86 1950.8417,-86 1950.8417,-122"/>
<text text-anchor="middle" x="1885" y="-99.8" font-family="Times,serif" font-size="14.00" fill="#000000">CategoriaDetailPage</text>
</g>
<!-- CategoriaDetailPageModule -->
<g id="node18" class="node">
<title>CategoriaDetailPageModule</title>
<polygon fill="#8dd3c7" stroke="#000000" points="1972.8918,-187 1969.8918,-191 1948.8918,-191 1945.8918,-187 1797.1082,-187 1797.1082,-151 1972.8918,-151 1972.8918,-187"/>
<text text-anchor="middle" x="1885" y="-164.8" font-family="Times,serif" font-size="14.00" fill="#000000">CategoriaDetailPageModule</text>
</g>
<!-- CategoriaDetailPage&#45;&gt;CategoriaDetailPageModule -->
<g id="edge14" class="edge">
<title>CategoriaDetailPage&#45;&gt;CategoriaDetailPageModule</title>
<path fill="none" stroke="#000000" d="M1885,-122.1061C1885,-122.1061 1885,-140.991 1885,-140.991"/>
<polygon fill="#000000" stroke="#000000" points="1881.5001,-140.9909 1885,-150.991 1888.5001,-140.991 1881.5001,-140.9909"/>
</g>
<!-- EditCategoryPage -->
<g id="node19" class="node">
<title>EditCategoryPage</title>
<polygon fill="#ffffb3" stroke="#000000" points="2136.8627,-122 2019.1373,-122 2019.1373,-86 2136.8627,-86 2136.8627,-122"/>
<text text-anchor="middle" x="2078" y="-99.8" font-family="Times,serif" font-size="14.00" fill="#000000">EditCategoryPage</text>
</g>
<!-- EditCategoryPageModule -->
<g id="node20" class="node">
<title>EditCategoryPageModule</title>
<polygon fill="#8dd3c7" stroke="#000000" points="2158.9129,-187 2155.9129,-191 2134.9129,-191 2131.9129,-187 1997.0871,-187 1997.0871,-151 2158.9129,-151 2158.9129,-187"/>
<text text-anchor="middle" x="2078" y="-164.8" font-family="Times,serif" font-size="14.00" fill="#000000">EditCategoryPageModule</text>
</g>
<!-- EditCategoryPage&#45;&gt;EditCategoryPageModule -->
<g id="edge15" class="edge">
<title>EditCategoryPage&#45;&gt;EditCategoryPageModule</title>
<path fill="none" stroke="#000000" d="M2078,-122.1061C2078,-122.1061 2078,-140.991 2078,-140.991"/>
<polygon fill="#000000" stroke="#000000" points="2074.5001,-140.9909 2078,-150.991 2081.5001,-140.991 2074.5001,-140.9909"/>
</g>
<!-- EditItemPage -->
<g id="node21" class="node">
<title>EditItemPage</title>
<polygon fill="#ffffb3" stroke="#000000" points="2297.2022,-122 2204.7978,-122 2204.7978,-86 2297.2022,-86 2297.2022,-122"/>
<text text-anchor="middle" x="2251" y="-99.8" font-family="Times,serif" font-size="14.00" fill="#000000">EditItemPage</text>
</g>
<!-- EditItemPageModule -->
<g id="node22" class="node">
<title>EditItemPageModule</title>
<polygon fill="#8dd3c7" stroke="#000000" points="2318.752,-187 2315.752,-191 2294.752,-191 2291.752,-187 2183.248,-187 2183.248,-151 2318.752,-151 2318.752,-187"/>
<text text-anchor="middle" x="2251" y="-164.8" font-family="Times,serif" font-size="14.00" fill="#000000">EditItemPageModule</text>
</g>
<!-- EditItemPage&#45;&gt;EditItemPageModule -->
<g id="edge16" class="edge">
<title>EditItemPage&#45;&gt;EditItemPageModule</title>
<path fill="none" stroke="#000000" d="M2251,-122.1061C2251,-122.1061 2251,-140.991 2251,-140.991"/>
<polygon fill="#000000" stroke="#000000" points="2247.5001,-140.9909 2251,-150.991 2254.5001,-140.991 2247.5001,-140.9909"/>
</g>
<!-- GoogleplaceDirective -->
<g id="node23" class="node">
<title>GoogleplaceDirective</title>
<polygon fill="#ffffb3" stroke="#000000" points="2510.3291,-187 2371.6709,-187 2371.6709,-151 2510.3291,-151 2510.3291,-187"/>
<text text-anchor="middle" x="2441" y="-164.8" font-family="Times,serif" font-size="14.00" fill="#000000">GoogleplaceDirective</text>
</g>
<!-- GooglePlaceComponentModule -->
<g id="node24" class="node">
<title>GooglePlaceComponentModule</title>
<polygon fill="#8dd3c7" stroke="#000000" points="2539.4114,-252 2536.4114,-256 2515.4114,-256 2512.4114,-252 2342.5886,-252 2342.5886,-216 2539.4114,-216 2539.4114,-252"/>
<text text-anchor="middle" x="2441" y="-229.8" font-family="Times,serif" font-size="14.00" fill="#000000">GooglePlaceComponentModule</text>
</g>
<!-- GoogleplaceDirective&#45;&gt;GooglePlaceComponentModule -->
<g id="edge17" class="edge">
<title>GoogleplaceDirective&#45;&gt;GooglePlaceComponentModule</title>
<path fill="none" stroke="#000000" d="M2441,-187.1061C2441,-187.1061 2441,-205.991 2441,-205.991"/>
<polygon fill="#000000" stroke="#000000" points="2437.5001,-205.9909 2441,-215.991 2444.5001,-205.991 2437.5001,-205.9909"/>
</g>
<!-- GoogleplaceDirective  -->
<g id="node26" class="node">
<title>GoogleplaceDirective </title>
<polygon fill="#fb8072" stroke="#000000" points="2512.3294,-320 2369.6706,-320 2369.6706,-284 2512.3294,-284 2512.3294,-320"/>
<text text-anchor="middle" x="2441" y="-297.8" font-family="Times,serif" font-size="14.00" fill="#000000">GoogleplaceDirective </text>
</g>
<!-- GooglePlaceComponentModule&#45;&gt;GoogleplaceDirective  -->
<g id="edge19" class="edge">
<title>GooglePlaceComponentModule&#45;&gt;GoogleplaceDirective </title>
<path fill="none" stroke="#000000" stroke-dasharray="5,2" d="M2441,-252.2228C2441,-252.2228 2441,-273.7269 2441,-273.7269"/>
<polygon fill="#000000" stroke="#000000" points="2437.5001,-273.7269 2441,-283.7269 2444.5001,-273.727 2437.5001,-273.7269"/>
</g>
<!-- NgModel -->
<g id="node25" class="node">
<title>NgModel</title>
<ellipse fill="#fdb462" stroke="#000000" cx="2441" cy="-104" rx="48.0955" ry="18"/>
<text text-anchor="middle" x="2441" y="-99.8" font-family="Times,serif" font-size="14.00" fill="#000000">NgModel</text>
</g>
<!-- NgModel&#45;&gt;GoogleplaceDirective -->
<g id="edge18" class="edge">
<title>NgModel&#45;&gt;GoogleplaceDirective</title>
<path fill="none" stroke="#000000" d="M2441,-122.1061C2441,-122.1061 2441,-140.991 2441,-140.991"/>
<polygon fill="#000000" stroke="#000000" points="2437.5001,-140.9909 2441,-150.991 2444.5001,-140.991 2437.5001,-140.9909"/>
</g>
<!-- HomePage -->
<g id="node27" class="node">
<title>HomePage</title>
<polygon fill="#ffffb3" stroke="#000000" points="2661.9248,-122 2584.0752,-122 2584.0752,-86 2661.9248,-86 2661.9248,-122"/>
<text text-anchor="middle" x="2623" y="-99.8" font-family="Times,serif" font-size="14.00" fill="#000000">HomePage</text>
</g>
<!-- HomePageModule -->
<g id="node28" class="node">
<title>HomePageModule</title>
<polygon fill="#8dd3c7" stroke="#000000" points="2683.4734,-187 2680.4734,-191 2659.4734,-191 2656.4734,-187 2562.5266,-187 2562.5266,-151 2683.4734,-151 2683.4734,-187"/>
<text text-anchor="middle" x="2623" y="-164.8" font-family="Times,serif" font-size="14.00" fill="#000000">HomePageModule</text>
</g>
<!-- HomePage&#45;&gt;HomePageModule -->
<g id="edge20" class="edge">
<title>HomePage&#45;&gt;HomePageModule</title>
<path fill="none" stroke="#000000" d="M2623,-122.1061C2623,-122.1061 2623,-140.991 2623,-140.991"/>
<polygon fill="#000000" stroke="#000000" points="2619.5001,-140.9909 2623,-150.991 2626.5001,-140.991 2619.5001,-140.9909"/>
</g>
<!-- ItemDetailPage -->
<g id="node29" class="node">
<title>ItemDetailPage</title>
<polygon fill="#ffffb3" stroke="#000000" points="2831.5758,-122 2728.4242,-122 2728.4242,-86 2831.5758,-86 2831.5758,-122"/>
<text text-anchor="middle" x="2780" y="-99.8" font-family="Times,serif" font-size="14.00" fill="#000000">ItemDetailPage</text>
</g>
<!-- ItemDetailPageModule -->
<g id="node30" class="node">
<title>ItemDetailPageModule</title>
<polygon fill="#8dd3c7" stroke="#000000" points="2853.1261,-187 2850.1261,-191 2829.1261,-191 2826.1261,-187 2706.8739,-187 2706.8739,-151 2853.1261,-151 2853.1261,-187"/>
<text text-anchor="middle" x="2780" y="-164.8" font-family="Times,serif" font-size="14.00" fill="#000000">ItemDetailPageModule</text>
</g>
<!-- ItemDetailPage&#45;&gt;ItemDetailPageModule -->
<g id="edge21" class="edge">
<title>ItemDetailPage&#45;&gt;ItemDetailPageModule</title>
<path fill="none" stroke="#000000" d="M2780,-122.1061C2780,-122.1061 2780,-140.991 2780,-140.991"/>
<polygon fill="#000000" stroke="#000000" points="2776.5001,-140.9909 2780,-150.991 2783.5001,-140.991 2776.5001,-140.9909"/>
</g>
<!-- LoginPage -->
<g id="node31" class="node">
<title>LoginPage</title>
<polygon fill="#ffffb3" stroke="#000000" points="2975.1558,-122 2898.8442,-122 2898.8442,-86 2975.1558,-86 2975.1558,-122"/>
<text text-anchor="middle" x="2937" y="-99.8" font-family="Times,serif" font-size="14.00" fill="#000000">LoginPage</text>
</g>
<!-- LoginPageModule -->
<g id="node32" class="node">
<title>LoginPageModule</title>
<polygon fill="#8dd3c7" stroke="#000000" points="2997.205,-187 2994.205,-191 2973.205,-191 2970.205,-187 2876.795,-187 2876.795,-151 2997.205,-151 2997.205,-187"/>
<text text-anchor="middle" x="2937" y="-164.8" font-family="Times,serif" font-size="14.00" fill="#000000">LoginPageModule</text>
</g>
<!-- LoginPage&#45;&gt;LoginPageModule -->
<g id="edge22" class="edge">
<title>LoginPage&#45;&gt;LoginPageModule</title>
<path fill="none" stroke="#000000" d="M2937,-122.1061C2937,-122.1061 2937,-140.991 2937,-140.991"/>
<polygon fill="#000000" stroke="#000000" points="2933.5001,-140.9909 2937,-150.991 2940.5001,-140.991 2933.5001,-140.9909"/>
</g>
<!-- LoginPage  -->
<g id="node33" class="node">
<title>LoginPage </title>
<polygon fill="#fb8072" stroke="#000000" points="2977.1552,-252 2896.8448,-252 2896.8448,-216 2977.1552,-216 2977.1552,-252"/>
<text text-anchor="middle" x="2937" y="-229.8" font-family="Times,serif" font-size="14.00" fill="#000000">LoginPage </text>
</g>
<!-- LoginPageModule&#45;&gt;LoginPage  -->
<g id="edge23" class="edge">
<title>LoginPageModule&#45;&gt;LoginPage </title>
<path fill="none" stroke="#000000" stroke-dasharray="5,2" d="M2937,-187.1061C2937,-187.1061 2937,-205.991 2937,-205.991"/>
<polygon fill="#000000" stroke="#000000" points="2933.5001,-205.9909 2937,-215.991 2940.5001,-205.991 2933.5001,-205.9909"/>
</g>
<!-- MainPage -->
<g id="node34" class="node">
<title>MainPage</title>
<polygon fill="#ffffb3" stroke="#000000" points="3115.262,-122 3042.738,-122 3042.738,-86 3115.262,-86 3115.262,-122"/>
<text text-anchor="middle" x="3079" y="-99.8" font-family="Times,serif" font-size="14.00" fill="#000000">MainPage</text>
</g>
<!-- MainPageModule -->
<g id="node35" class="node">
<title>MainPageModule</title>
<polygon fill="#8dd3c7" stroke="#000000" points="3137.3118,-187 3134.3118,-191 3113.3118,-191 3110.3118,-187 3020.6882,-187 3020.6882,-151 3137.3118,-151 3137.3118,-187"/>
<text text-anchor="middle" x="3079" y="-164.8" font-family="Times,serif" font-size="14.00" fill="#000000">MainPageModule</text>
</g>
<!-- MainPage&#45;&gt;MainPageModule -->
<g id="edge24" class="edge">
<title>MainPage&#45;&gt;MainPageModule</title>
<path fill="none" stroke="#000000" d="M3079,-122.1061C3079,-122.1061 3079,-140.991 3079,-140.991"/>
<polygon fill="#000000" stroke="#000000" points="3075.5001,-140.9909 3079,-150.991 3082.5001,-140.991 3075.5001,-140.9909"/>
</g>
<!-- MapaPage -->
<g id="node36" class="node">
<title>MapaPage</title>
<polygon fill="#ffffb3" stroke="#000000" points="3257.5856,-122 3182.4144,-122 3182.4144,-86 3257.5856,-86 3257.5856,-122"/>
<text text-anchor="middle" x="3220" y="-99.8" font-family="Times,serif" font-size="14.00" fill="#000000">MapaPage</text>
</g>
<!-- MapaPageModule -->
<g id="node37" class="node">
<title>MapaPageModule</title>
<polygon fill="#8dd3c7" stroke="#000000" points="3279.136,-187 3276.136,-191 3255.136,-191 3252.136,-187 3160.864,-187 3160.864,-151 3279.136,-151 3279.136,-187"/>
<text text-anchor="middle" x="3220" y="-164.8" font-family="Times,serif" font-size="14.00" fill="#000000">MapaPageModule</text>
</g>
<!-- MapaPage&#45;&gt;MapaPageModule -->
<g id="edge25" class="edge">
<title>MapaPage&#45;&gt;MapaPageModule</title>
<path fill="none" stroke="#000000" d="M3220,-122.1061C3220,-122.1061 3220,-140.991 3220,-140.991"/>
<polygon fill="#000000" stroke="#000000" points="3216.5001,-140.9909 3220,-150.991 3223.5001,-140.991 3216.5001,-140.9909"/>
</g>
<!-- NegocioCardComponent -->
<g id="node38" class="node">
<title>NegocioCardComponent</title>
<polygon fill="#ffffb3" stroke="#000000" points="3480.9706,-122 3325.0294,-122 3325.0294,-86 3480.9706,-86 3480.9706,-122"/>
<text text-anchor="middle" x="3403" y="-99.8" font-family="Times,serif" font-size="14.00" fill="#000000">NegocioCardComponent</text>
</g>
<!-- NegocioCardComponentModule -->
<g id="node39" class="node">
<title>NegocioCardComponentModule</title>
<polygon fill="#8dd3c7" stroke="#000000" points="3502.521,-187 3499.521,-191 3478.521,-191 3475.521,-187 3303.479,-187 3303.479,-151 3502.521,-151 3502.521,-187"/>
<text text-anchor="middle" x="3403" y="-164.8" font-family="Times,serif" font-size="14.00" fill="#000000">NegocioCardComponentModule</text>
</g>
<!-- NegocioCardComponent&#45;&gt;NegocioCardComponentModule -->
<g id="edge26" class="edge">
<title>NegocioCardComponent&#45;&gt;NegocioCardComponentModule</title>
<path fill="none" stroke="#000000" d="M3403,-122.1061C3403,-122.1061 3403,-140.991 3403,-140.991"/>
<polygon fill="#000000" stroke="#000000" points="3399.5001,-140.9909 3403,-150.991 3406.5001,-140.991 3399.5001,-140.9909"/>
</g>
<!-- NegocioCardComponent  -->
<g id="node40" class="node">
<title>NegocioCardComponent </title>
<polygon fill="#fb8072" stroke="#000000" points="3482.9713,-252 3323.0287,-252 3323.0287,-216 3482.9713,-216 3482.9713,-252"/>
<text text-anchor="middle" x="3403" y="-229.8" font-family="Times,serif" font-size="14.00" fill="#000000">NegocioCardComponent </text>
</g>
<!-- NegocioCardComponentModule&#45;&gt;NegocioCardComponent  -->
<g id="edge27" class="edge">
<title>NegocioCardComponentModule&#45;&gt;NegocioCardComponent </title>
<path fill="none" stroke="#000000" stroke-dasharray="5,2" d="M3403,-187.1061C3403,-187.1061 3403,-205.991 3403,-205.991"/>
<polygon fill="#000000" stroke="#000000" points="3399.5001,-205.9909 3403,-215.991 3406.5001,-205.991 3399.5001,-205.9909"/>
</g>
<!-- NegocioMainPage -->
<g id="node41" class="node">
<title>NegocioMainPage</title>
<polygon fill="#ffffb3" stroke="#000000" points="3669.1881,-122 3548.8119,-122 3548.8119,-86 3669.1881,-86 3669.1881,-122"/>
<text text-anchor="middle" x="3609" y="-99.8" font-family="Times,serif" font-size="14.00" fill="#000000">NegocioMainPage</text>
</g>
<!-- NegocioMainPageModule -->
<g id="node42" class="node">
<title>NegocioMainPageModule</title>
<polygon fill="#8dd3c7" stroke="#000000" points="3690.738,-187 3687.738,-191 3666.738,-191 3663.738,-187 3527.262,-187 3527.262,-151 3690.738,-151 3690.738,-187"/>
<text text-anchor="middle" x="3609" y="-164.8" font-family="Times,serif" font-size="14.00" fill="#000000">NegocioMainPageModule</text>
</g>
<!-- NegocioMainPage&#45;&gt;NegocioMainPageModule -->
<g id="edge28" class="edge">
<title>NegocioMainPage&#45;&gt;NegocioMainPageModule</title>
<path fill="none" stroke="#000000" d="M3609,-122.1061C3609,-122.1061 3609,-140.991 3609,-140.991"/>
<polygon fill="#000000" stroke="#000000" points="3605.5001,-140.9909 3609,-150.991 3612.5001,-140.991 3605.5001,-140.9909"/>
</g>
<!-- NewCategoryPage -->
<g id="node43" class="node">
<title>NewCategoryPage</title>
<polygon fill="#ffffb3" stroke="#000000" points="3857.4566,-122 3736.5434,-122 3736.5434,-86 3857.4566,-86 3857.4566,-122"/>
<text text-anchor="middle" x="3797" y="-99.8" font-family="Times,serif" font-size="14.00" fill="#000000">NewCategoryPage</text>
</g>
<!-- NewCategoryPageModule -->
<g id="node44" class="node">
<title>NewCategoryPageModule</title>
<polygon fill="#8dd3c7" stroke="#000000" points="3879.0071,-187 3876.0071,-191 3855.0071,-191 3852.0071,-187 3714.9929,-187 3714.9929,-151 3879.0071,-151 3879.0071,-187"/>
<text text-anchor="middle" x="3797" y="-164.8" font-family="Times,serif" font-size="14.00" fill="#000000">NewCategoryPageModule</text>
</g>
<!-- NewCategoryPage&#45;&gt;NewCategoryPageModule -->
<g id="edge29" class="edge">
<title>NewCategoryPage&#45;&gt;NewCategoryPageModule</title>
<path fill="none" stroke="#000000" d="M3797,-122.1061C3797,-122.1061 3797,-140.991 3797,-140.991"/>
<polygon fill="#000000" stroke="#000000" points="3793.5001,-140.9909 3797,-150.991 3800.5001,-140.991 3793.5001,-140.9909"/>
</g>
<!-- NewItemPage -->
<g id="node45" class="node">
<title>NewItemPage</title>
<polygon fill="#ffffb3" stroke="#000000" points="4019.7965,-122 3924.2035,-122 3924.2035,-86 4019.7965,-86 4019.7965,-122"/>
<text text-anchor="middle" x="3972" y="-99.8" font-family="Times,serif" font-size="14.00" fill="#000000">NewItemPage</text>
</g>
<!-- NewItemPageModule -->
<g id="node46" class="node">
<title>NewItemPageModule</title>
<polygon fill="#8dd3c7" stroke="#000000" points="4041.3459,-187 4038.3459,-191 4017.3459,-191 4014.3459,-187 3902.6541,-187 3902.6541,-151 4041.3459,-151 4041.3459,-187"/>
<text text-anchor="middle" x="3972" y="-164.8" font-family="Times,serif" font-size="14.00" fill="#000000">NewItemPageModule</text>
</g>
<!-- NewItemPage&#45;&gt;NewItemPageModule -->
<g id="edge30" class="edge">
<title>NewItemPage&#45;&gt;NewItemPageModule</title>
<path fill="none" stroke="#000000" d="M3972,-122.1061C3972,-122.1061 3972,-140.991 3972,-140.991"/>
<polygon fill="#000000" stroke="#000000" points="3968.5001,-140.9909 3972,-150.991 3975.5001,-140.991 3968.5001,-140.9909"/>
</g>
<!-- NotificacionesPage -->
<g id="node47" class="node">
<title>NotificacionesPage</title>
<polygon fill="#ffffb3" stroke="#000000" points="4211.3445,-122 4086.6555,-122 4086.6555,-86 4211.3445,-86 4211.3445,-122"/>
<text text-anchor="middle" x="4149" y="-99.8" font-family="Times,serif" font-size="14.00" fill="#000000">NotificacionesPage</text>
</g>
<!-- NotificacionesPageModule -->
<g id="node48" class="node">
<title>NotificacionesPageModule</title>
<polygon fill="#8dd3c7" stroke="#000000" points="4233.3947,-187 4230.3947,-191 4209.3947,-191 4206.3947,-187 4064.6053,-187 4064.6053,-151 4233.3947,-151 4233.3947,-187"/>
<text text-anchor="middle" x="4149" y="-164.8" font-family="Times,serif" font-size="14.00" fill="#000000">NotificacionesPageModule</text>
</g>
<!-- NotificacionesPage&#45;&gt;NotificacionesPageModule -->
<g id="edge31" class="edge">
<title>NotificacionesPage&#45;&gt;NotificacionesPageModule</title>
<path fill="none" stroke="#000000" d="M4149,-122.1061C4149,-122.1061 4149,-140.991 4149,-140.991"/>
<polygon fill="#000000" stroke="#000000" points="4145.5001,-140.9909 4149,-150.991 4152.5001,-140.991 4145.5001,-140.9909"/>
</g>
<!-- ProfilePage -->
<g id="node49" class="node">
<title>ProfilePage</title>
<polygon fill="#ffffb3" stroke="#000000" points="4359.812,-122 4278.188,-122 4278.188,-86 4359.812,-86 4359.812,-122"/>
<text text-anchor="middle" x="4319" y="-99.8" font-family="Times,serif" font-size="14.00" fill="#000000">ProfilePage</text>
</g>
<!-- ProfilePageModule -->
<g id="node50" class="node">
<title>ProfilePageModule</title>
<polygon fill="#8dd3c7" stroke="#000000" points="4381.3613,-187 4378.3613,-191 4357.3613,-191 4354.3613,-187 4256.6387,-187 4256.6387,-151 4381.3613,-151 4381.3613,-187"/>
<text text-anchor="middle" x="4319" y="-164.8" font-family="Times,serif" font-size="14.00" fill="#000000">ProfilePageModule</text>
</g>
<!-- ProfilePage&#45;&gt;ProfilePageModule -->
<g id="edge32" class="edge">
<title>ProfilePage&#45;&gt;ProfilePageModule</title>
<path fill="none" stroke="#000000" d="M4319,-122.1061C4319,-122.1061 4319,-140.991 4319,-140.991"/>
<polygon fill="#000000" stroke="#000000" points="4315.5001,-140.9909 4319,-150.991 4322.5001,-140.991 4315.5001,-140.9909"/>
</g>
<!-- SearchPage -->
<g id="node51" class="node">
<title>SearchPage</title>
<polygon fill="#ffffb3" stroke="#000000" points="4507.7994,-122 4426.2006,-122 4426.2006,-86 4507.7994,-86 4507.7994,-122"/>
<text text-anchor="middle" x="4467" y="-99.8" font-family="Times,serif" font-size="14.00" fill="#000000">SearchPage</text>
</g>
<!-- SearchPageModule -->
<g id="node52" class="node">
<title>SearchPageModule</title>
<polygon fill="#8dd3c7" stroke="#000000" points="4529.3487,-187 4526.3487,-191 4505.3487,-191 4502.3487,-187 4404.6513,-187 4404.6513,-151 4529.3487,-151 4529.3487,-187"/>
<text text-anchor="middle" x="4467" y="-164.8" font-family="Times,serif" font-size="14.00" fill="#000000">SearchPageModule</text>
</g>
<!-- SearchPage&#45;&gt;SearchPageModule -->
<g id="edge33" class="edge">
<title>SearchPage&#45;&gt;SearchPageModule</title>
<path fill="none" stroke="#000000" d="M4467,-122.1061C4467,-122.1061 4467,-140.991 4467,-140.991"/>
<polygon fill="#000000" stroke="#000000" points="4463.5001,-140.9909 4467,-150.991 4470.5001,-140.991 4463.5001,-140.9909"/>
</g>
</g>
</svg>
