<?xml version="1.0" encoding="UTF-8" standalone="no"?>
<!DOCTYPE svg PUBLIC "-//W3C//DTD SVG 1.1//EN"
 "http://www.w3.org/Graphics/SVG/1.1/DTD/svg11.dtd">
<!-- Generated by graphviz version 2.40.1 (20161225.0304)
 -->
<!-- Title: dependencies Pages: 1 -->
<svg width="1327pt" height="284pt"
 viewBox="0.00 0.00 1327.00 284.00" xmlns="http://www.w3.org/2000/svg" xmlns:xlink="http://www.w3.org/1999/xlink">
<g id="graph0" class="graph" transform="scale(1 1) rotate(0) translate(4 280)">
<title>dependencies</title>
<polygon fill="#ffffff" stroke="transparent" points="-4,4 -4,-280 1323,-280 1323,4 -4,4"/>
<text text-anchor="start" x="638.5091" y="-42.4" font-family="sans-serif" font-weight="bold" font-size="14.00" fill="#000000">Legend</text>
<polygon fill="#ffffb3" stroke="transparent" points="425.5,-10 425.5,-30 445.5,-30 445.5,-10 425.5,-10"/>
<text text-anchor="start" x="449.129" y="-15.4" font-family="sans-serif" font-size="14.00" fill="#000000"> &#160;Declarations</text>
<polygon fill="#8dd3c7" stroke="transparent" points="538.5,-10 538.5,-30 558.5,-30 558.5,-10 538.5,-10"/>
<text text-anchor="start" x="562.2251" y="-15.4" font-family="sans-serif" font-size="14.00" fill="#000000"> &#160;Module</text>
<polygon fill="#80b1d3" stroke="transparent" points="624.5,-10 624.5,-30 644.5,-30 644.5,-10 624.5,-10"/>
<text text-anchor="start" x="648.2812" y="-15.4" font-family="sans-serif" font-size="14.00" fill="#000000"> &#160;Bootstrap</text>
<polygon fill="#fdb462" stroke="transparent" points="721.5,-10 721.5,-30 741.5,-30 741.5,-10 721.5,-10"/>
<text text-anchor="start" x="745.1732" y="-15.4" font-family="sans-serif" font-size="14.00" fill="#000000"> &#160;Providers</text>
<polygon fill="#fb8072" stroke="transparent" points="817.5,-10 817.5,-30 837.5,-30 837.5,-10 817.5,-10"/>
<text text-anchor="start" x="841.2258" y="-15.4" font-family="sans-serif" font-size="14.00" fill="#000000"> &#160;Exports</text>
<g id="clust1" class="cluster">
<title>cluster_AppModule</title>
<polygon fill="none" stroke="#000000" stroke-dasharray="1,5" points="8,-70 8,-268 1311,-268 1311,-70 8,-70"/>
</g>
<g id="clust2" class="cluster">
<title>cluster_AppModule_declarations</title>
<polygon fill="none" stroke="#000000" points="1068,-78 1068,-130 1303,-130 1303,-78 1068,-78"/>
</g>
<g id="clust7" class="cluster">
<title>cluster_AppModule_bootstrap</title>
<polygon fill="none" stroke="#000000" points="737,-208 737,-260 825,-260 825,-208 737,-208"/>
</g>
<g id="clust8" class="cluster">
<title>cluster_AppModule_providers</title>
<polygon fill="none" stroke="#000000" points="16,-78 16,-130 1060,-130 1060,-78 16,-78"/>
</g>
<!-- MyApp -->
<g id="node1" class="node">
<title>MyApp</title>
<polygon fill="#ffffb3" stroke="#000000" points="1294.5529,-122 1235.4471,-122 1235.4471,-86 1294.5529,-86 1294.5529,-122"/>
<text text-anchor="middle" x="1265" y="-99.8" font-family="Times,serif" font-size="14.00" fill="#000000">MyApp</text>
</g>
<!-- AppModule -->
<g id="node3" class="node">
<title>AppModule</title>
<polygon fill="#8dd3c7" stroke="#000000" points="822.6571,-187 819.6571,-191 798.6571,-191 795.6571,-187 739.3429,-187 739.3429,-151 822.6571,-151 822.6571,-187"/>
<text text-anchor="middle" x="781" y="-164.8" font-family="Times,serif" font-size="14.00" fill="#000000">AppModule</text>
</g>
<!-- MyApp&#45;&gt;AppModule -->
<g id="edge1" class="edge">
<title>MyApp&#45;&gt;AppModule</title>
<path fill="none" stroke="#000000" d="M1265,-122.0109C1265,-144.4852 1265,-180 1265,-180 1265,-180 832.6845,-180 832.6845,-180"/>
<polygon fill="#000000" stroke="#000000" points="832.6845,-176.5001 822.6845,-180 832.6844,-183.5001 832.6845,-176.5001"/>
</g>
<!-- PopoverCategoryPage -->
<g id="node2" class="node">
<title>PopoverCategoryPage</title>
<polygon fill="#ffffb3" stroke="#000000" points="1217.6867,-122 1076.3133,-122 1076.3133,-86 1217.6867,-86 1217.6867,-122"/>
<text text-anchor="middle" x="1147" y="-99.8" font-family="Times,serif" font-size="14.00" fill="#000000">PopoverCategoryPage</text>
</g>
<!-- PopoverCategoryPage&#45;&gt;AppModule -->
<g id="edge2" class="edge">
<title>PopoverCategoryPage&#45;&gt;AppModule</title>
<path fill="none" stroke="#000000" d="M1147,-122.1289C1147,-142.5724 1147,-173 1147,-173 1147,-173 832.9849,-173 832.9849,-173"/>
<polygon fill="#000000" stroke="#000000" points="832.9849,-169.5001 822.9849,-173 832.9848,-176.5001 832.9849,-169.5001"/>
</g>
<!-- IonicApp  -->
<g id="node4" class="node">
<title>IonicApp </title>
<polygon fill="#80b1d3" stroke="#000000" points="817.3734,-252 744.6266,-252 744.6266,-216 817.3734,-216 817.3734,-252"/>
<text text-anchor="middle" x="781" y="-229.8" font-family="Times,serif" font-size="14.00" fill="#000000">IonicApp </text>
</g>
<!-- AppModule&#45;&gt;IonicApp  -->
<g id="edge3" class="edge">
<title>AppModule&#45;&gt;IonicApp </title>
<path fill="none" stroke="#000000" stroke-dasharray="1,5" d="M781,-187.1061C781,-187.1061 781,-205.991 781,-205.991"/>
<polygon fill="#000000" stroke="#000000" points="777.5001,-205.9909 781,-215.991 784.5001,-205.991 777.5001,-205.9909"/>
</g>
<!-- Api -->
<g id="node5" class="node">
<title>Api</title>
<ellipse fill="#fdb462" stroke="#000000" cx="1025" cy="-104" rx="27" ry="18"/>
<text text-anchor="middle" x="1025" y="-99.8" font-family="Times,serif" font-size="14.00" fill="#000000">Api</text>
</g>
<!-- Api&#45;&gt;AppModule -->
<g id="edge4" class="edge">
<title>Api&#45;&gt;AppModule</title>
<path fill="none" stroke="#000000" d="M1025,-122.2667C1025,-140.5552 1025,-166 1025,-166 1025,-166 832.6679,-166 832.6679,-166"/>
<polygon fill="#000000" stroke="#000000" points="832.6679,-162.5001 822.6679,-166 832.6678,-169.5001 832.6679,-162.5001"/>
</g>
<!-- ItemsService -->
<g id="node6" class="node">
<title>ItemsService</title>
<ellipse fill="#fdb462" stroke="#000000" cx="919" cy="-104" rx="61.3896" ry="18"/>
<text text-anchor="middle" x="919" y="-99.8" font-family="Times,serif" font-size="14.00" fill="#000000">ItemsService</text>
</g>
<!-- ItemsService&#45;&gt;AppModule -->
<g id="edge5" class="edge">
<title>ItemsService&#45;&gt;AppModule</title>
<path fill="none" stroke="#000000" d="M919,-122.0091C919,-138.0494 919,-159 919,-159 919,-159 832.779,-159 832.779,-159"/>
<polygon fill="#000000" stroke="#000000" points="832.7791,-155.5001 822.779,-159 832.779,-162.5001 832.7791,-155.5001"/>
</g>
<!-- UserService -->
<g id="node7" class="node">
<title>UserService</title>
<ellipse fill="#fdb462" stroke="#000000" cx="781" cy="-104" rx="58.4415" ry="18"/>
<text text-anchor="middle" x="781" y="-99.8" font-family="Times,serif" font-size="14.00" fill="#000000">UserService</text>
</g>
<!-- UserService&#45;&gt;AppModule -->
<g id="edge6" class="edge">
<title>UserService&#45;&gt;AppModule</title>
<path fill="none" stroke="#000000" d="M781,-122.1061C781,-122.1061 781,-140.991 781,-140.991"/>
<polygon fill="#000000" stroke="#000000" points="777.5001,-140.9909 781,-150.991 784.5001,-140.991 777.5001,-140.9909"/>
</g>
<!-- CategoriasService -->
<g id="node8" class="node">
<title>CategoriasService</title>
<ellipse fill="#fdb462" stroke="#000000" cx="623" cy="-104" rx="81.0744" ry="18"/>
<text text-anchor="middle" x="623" y="-99.8" font-family="Times,serif" font-size="14.00" fill="#000000">CategoriasService</text>
</g>
<!-- CategoriasService&#45;&gt;AppModule -->
<g id="edge7" class="edge">
<title>CategoriasService&#45;&gt;AppModule</title>
<path fill="none" stroke="#000000" d="M623,-122.0091C623,-138.0494 623,-159 623,-159 623,-159 729.0737,-159 729.0737,-159"/>
<polygon fill="#000000" stroke="#000000" points="729.0738,-162.5001 739.0737,-159 729.0737,-155.5001 729.0738,-162.5001"/>
</g>
<!-- LoadingProvider -->
<g id="node9" class="node">
<title>LoadingProvider</title>
<ellipse fill="#fdb462" stroke="#000000" cx="447" cy="-104" rx="76.4478" ry="18"/>
<text text-anchor="middle" x="447" y="-99.8" font-family="Times,serif" font-size="14.00" fill="#000000">LoadingProvider</text>
</g>
<!-- LoadingProvider&#45;&gt;AppModule -->
<g id="edge8" class="edge">
<title>LoadingProvider&#45;&gt;AppModule</title>
<path fill="none" stroke="#000000" d="M447,-122.2667C447,-140.5552 447,-166 447,-166 447,-166 729.0369,-166 729.0369,-166"/>
<polygon fill="#000000" stroke="#000000" points="729.0369,-169.5001 739.0369,-166 729.0368,-162.5001 729.0369,-169.5001"/>
</g>
<!-- GeoProvider -->
<g id="node10" class="node">
<title>GeoProvider</title>
<ellipse fill="#fdb462" stroke="#000000" cx="292" cy="-104" rx="60.2537" ry="18"/>
<text text-anchor="middle" x="292" y="-99.8" font-family="Times,serif" font-size="14.00" fill="#000000">GeoProvider</text>
</g>
<!-- GeoProvider&#45;&gt;AppModule -->
<g id="edge9" class="edge">
<title>GeoProvider&#45;&gt;AppModule</title>
<path fill="none" stroke="#000000" d="M292,-122.1289C292,-142.5724 292,-173 292,-173 292,-173 729.3081,-173 729.3081,-173"/>
<polygon fill="#000000" stroke="#000000" points="729.3082,-176.5001 739.3081,-173 729.3081,-169.5001 729.3082,-176.5001"/>
</g>
<!-- NotificationsProvider -->
<g id="node11" class="node">
<title>NotificationsProvider</title>
<ellipse fill="#fdb462" stroke="#000000" cx="119" cy="-104" rx="94.9187" ry="18"/>
<text text-anchor="middle" x="119" y="-99.8" font-family="Times,serif" font-size="14.00" fill="#000000">NotificationsProvider</text>
</g>
<!-- NotificationsProvider&#45;&gt;AppModule -->
<g id="edge10" class="edge">
<title>NotificationsProvider&#45;&gt;AppModule</title>
<path fill="none" stroke="#000000" d="M119,-122.0109C119,-144.4852 119,-180 119,-180 119,-180 729.3382,-180 729.3382,-180"/>
<polygon fill="#000000" stroke="#000000" points="729.3382,-183.5001 739.3382,-180 729.3381,-176.5001 729.3382,-183.5001"/>
</g>
</g>
</svg>
