<?xml version="1.0" encoding="UTF-8" standalone="no"?>
<!DOCTYPE svg PUBLIC "-//W3C//DTD SVG 1.1//EN"
 "http://www.w3.org/Graphics/SVG/1.1/DTD/svg11.dtd">
<!-- Generated by graphviz version 2.40.1 (20161225.0304)
 -->
<!-- Title: dependencies Pages: 1 -->
<svg width="504pt" height="349pt"
 viewBox="0.00 0.00 504.00 349.00" xmlns="http://www.w3.org/2000/svg" xmlns:xlink="http://www.w3.org/1999/xlink">
<g id="graph0" class="graph" transform="scale(1 1) rotate(0) translate(4 345)">
<title>dependencies</title>
<polygon fill="#ffffff" stroke="transparent" points="-4,4 -4,-345 500,-345 500,4 -4,4"/>
<text text-anchor="start" x="227.0091" y="-42.4" font-family="sans-serif" font-weight="bold" font-size="14.00" fill="#000000">Legend</text>
<polygon fill="#ffffb3" stroke="transparent" points="14,-10 14,-30 34,-30 34,-10 14,-10"/>
<text text-anchor="start" x="37.629" y="-15.4" font-family="sans-serif" font-size="14.00" fill="#000000"> &#160;Declarations</text>
<polygon fill="#8dd3c7" stroke="transparent" points="127,-10 127,-30 147,-30 147,-10 127,-10"/>
<text text-anchor="start" x="150.7251" y="-15.4" font-family="sans-serif" font-size="14.00" fill="#000000"> &#160;Module</text>
<polygon fill="#80b1d3" stroke="transparent" points="213,-10 213,-30 233,-30 233,-10 213,-10"/>
<text text-anchor="start" x="236.7812" y="-15.4" font-family="sans-serif" font-size="14.00" fill="#000000"> &#160;Bootstrap</text>
<polygon fill="#fdb462" stroke="transparent" points="310,-10 310,-30 330,-30 330,-10 310,-10"/>
<text text-anchor="start" x="333.6732" y="-15.4" font-family="sans-serif" font-size="14.00" fill="#000000"> &#160;Providers</text>
<polygon fill="#fb8072" stroke="transparent" points="406,-10 406,-30 426,-30 426,-10 406,-10"/>
<text text-anchor="start" x="429.7258" y="-15.4" font-family="sans-serif" font-size="14.00" fill="#000000"> &#160;Exports</text>
<g id="clust1" class="cluster">
<title>cluster_GooglePlaceComponentModule</title>
<polygon fill="none" stroke="#000000" stroke-dasharray="1,5" points="142,-70 142,-333 354,-333 354,-70 142,-70"/>
</g>
<g id="clust2" class="cluster">
<title>cluster_GooglePlaceComponentModule_declarations</title>
<polygon fill="none" stroke="#000000" points="171,-143 171,-195 325,-195 325,-143 171,-143"/>
</g>
<g id="clust3" class="cluster">
<title>cluster_GooglePlaceComponentModule_GoogleplaceDirective_providers</title>
<polygon fill="none" stroke="#000000" points="192,-78 192,-130 304,-130 304,-78 192,-78"/>
</g>
<g id="clust5" class="cluster">
<title>cluster_GooglePlaceComponentModule_exports</title>
<polygon fill="none" stroke="#000000" points="169,-273 169,-325 327,-325 327,-273 169,-273"/>
</g>
<!-- GoogleplaceDirective -->
<g id="node1" class="node">
<title>GoogleplaceDirective</title>
<polygon fill="#ffffb3" stroke="#000000" points="317.3291,-187 178.6709,-187 178.6709,-151 317.3291,-151 317.3291,-187"/>
<text text-anchor="middle" x="248" y="-164.8" font-family="Times,serif" font-size="14.00" fill="#000000">GoogleplaceDirective</text>
</g>
<!-- GooglePlaceComponentModule -->
<g id="node2" class="node">
<title>GooglePlaceComponentModule</title>
<polygon fill="#8dd3c7" stroke="#000000" points="346.4114,-252 343.4114,-256 322.4114,-256 319.4114,-252 149.5886,-252 149.5886,-216 346.4114,-216 346.4114,-252"/>
<text text-anchor="middle" x="248" y="-229.8" font-family="Times,serif" font-size="14.00" fill="#000000">GooglePlaceComponentModule</text>
</g>
<!-- GoogleplaceDirective&#45;&gt;GooglePlaceComponentModule -->
<g id="edge1" class="edge">
<title>GoogleplaceDirective&#45;&gt;GooglePlaceComponentModule</title>
<path fill="none" stroke="#000000" d="M248,-187.1061C248,-187.1061 248,-205.991 248,-205.991"/>
<polygon fill="#000000" stroke="#000000" points="244.5001,-205.9909 248,-215.991 251.5001,-205.991 244.5001,-205.9909"/>
</g>
<!-- GoogleplaceDirective  -->
<g id="node4" class="node">
<title>GoogleplaceDirective </title>
<polygon fill="#fb8072" stroke="#000000" points="319.3294,-317 176.6706,-317 176.6706,-281 319.3294,-281 319.3294,-317"/>
<text text-anchor="middle" x="248" y="-294.8" font-family="Times,serif" font-size="14.00" fill="#000000">GoogleplaceDirective </text>
</g>
<!-- GooglePlaceComponentModule&#45;&gt;GoogleplaceDirective  -->
<g id="edge3" class="edge">
<title>GooglePlaceComponentModule&#45;&gt;GoogleplaceDirective </title>
<path fill="none" stroke="#000000" stroke-dasharray="5,2" d="M248,-252.1061C248,-252.1061 248,-270.991 248,-270.991"/>
<polygon fill="#000000" stroke="#000000" points="244.5001,-270.9909 248,-280.991 251.5001,-270.991 244.5001,-270.9909"/>
</g>
<!-- NgModel -->
<g id="node3" class="node">
<title>NgModel</title>
<ellipse fill="#fdb462" stroke="#000000" cx="248" cy="-104" rx="48.0955" ry="18"/>
<text text-anchor="middle" x="248" y="-99.8" font-family="Times,serif" font-size="14.00" fill="#000000">NgModel</text>
</g>
<!-- NgModel&#45;&gt;GoogleplaceDirective -->
<g id="edge2" class="edge">
<title>NgModel&#45;&gt;GoogleplaceDirective</title>
<path fill="none" stroke="#000000" d="M248,-122.1061C248,-122.1061 248,-140.991 248,-140.991"/>
<polygon fill="#000000" stroke="#000000" points="244.5001,-140.9909 248,-150.991 251.5001,-140.991 244.5001,-140.9909"/>
</g>
</g>
</svg>
